<svg width="14" height="7" viewBox="0 0 14 7" fill="none" xmlns="http://www.w3.org/2000/svg">
<path d="M6.856 0.384V6H5.488V2.632L4.232 6H3.128L1.864 2.624V6H0.496V0.384H2.112L3.688 4.272L5.248 0.384H6.856ZM9.20775 1.48V2.616H11.0398V3.672H9.20775V4.904H11.2798V6H7.83975V0.384H11.2798V1.48H9.20775ZM12.8079 6.064C12.5679 6.064 12.3705 5.99467 12.2159 5.856C12.0665 5.712 11.9919 5.536 11.9919 5.328C11.9919 5.11467 12.0665 4.936 12.2159 4.792C12.3705 4.648 12.5679 4.576 12.8079 4.576C13.0425 4.576 13.2345 4.648 13.3839 4.792C13.5385 4.936 13.6159 5.11467 13.6159 5.328C13.6159 5.536 13.5385 5.712 13.3839 5.856C13.2345 5.99467 13.0425 6.064 12.8079 6.064Z" fill="#52FF00"/>
</svg>
